<svg xmlns="http://www.w3.org/2000/svg" width="521" height="233" fill="none" viewBox="0 0 521 233"><path fill="#b01c2e" d="M293.25 66c0-5.523-4.477-10-10-10s-10 4.477-10 10 4.477 10 10 10v15c-13.807 0-25-11.193-25-25s11.193-25 25-25 25 11.193 25 25-11.193 25-25 25V76c5.523 0 10-4.477 10-10M505.25 66c0-5.523-4.477-10-10-10s-10 4.477-10 10 4.477 10 10 10v15c-13.807 0-25-11.193-25-25s11.193-25 25-25 25 11.193 25 25-11.193 25-25 25V76c5.523 0 10-4.477 10-10"/><path fill="#000" d="M515.848 230h-53.75v-6.25q6.75-3.5 14.75-6V158.5q0-19-5.5-30t-20-11q-6.25 0-11.75 2.25-5.25 2.25-9.5 6.25-4 3.75-7 8.75-3 4.75-4.75 10v73q7.749 1.5 15 6V230h-54v-6.25q6.249-3.25 16.5-6V119.5l-16.5-2V111q6.5-2.75 15-5a254 254 0 0 1 17.75-4h6.25v28h.25q5.25-11.5 15-19.75 9.999-8.25 24-8.25 10 0 17.75 2.5 8 2.25 13.25 8.25t8 16.25q2.75 10 2.75 25.5v63.25q9.999 1.75 16.5 6z"/><path fill="#b01c2e" d="M243.664 167.5q0-15.75 4-27.75 4.25-12.25 12-20.5 7.75-8.5 18.5-12.75 11-4.5 24.25-4.5 15.5 0 26.75 4.75t18.25 13.5q7.25 8.5 10.5 20.5 3.5 12 3.5 26.75 0 31.5-16 48.5t-43 17q-15 0-26-4.5-11-4.75-18.25-13.25-7.25-8.75-11-20.75-3.5-12.25-3.5-27m24 0q0 11.25 2 21.25 2.25 10 6.75 17.5 4.75 7.25 12.25 11.5t18 4.25q13.5 0 22-13.25 8.75-13.25 8.75-41.25 0-11.5-2.25-21.25-2-10-6.5-17.25-4.5-7.5-11.5-11.75t-16.75-4.25q-14.75 0-23.75 13.25t-9 41.25M175.971 131l-48.75-115.5q-7.25-2.5-13.25-6V3h52.25v6.25a252 252 0 0 1-6.75 3.5q-3.25 1.5-7.5 2.75l29 75.25 5 15.5h.5l3.75-15.75 26.75-75a49.5 49.5 0 0 1-7.5-2.5q-3.25-1.5-6.25-3.5V3h42.5v6.5q-2.5 1.75-6.25 3.25-3.5 1.5-8 2.75L187.221 128z"/><path fill="#000" d="M92.75 95.25q0 5.5.25 9.5t.5 8.5l17.25 2.5V121q-6.25 3.25-14 5.75-7.5 2.5-14.5 3.75H76q-2.5-5.75-3-12.5-.5-7-.75-15.25H71q-1 5-4 10.25-2.75 5-7.5 9-4.5 4-10.75 6.5T34.5 131q-15.25 0-25-9.25Q0 112.5 0 97.5 0 86 4.5 78.75 9.25 71.25 18.25 67t22.25-6q13.25-2 30.75-3 1-10.75.5-19.25Q71.5 30 69 24q-2.25-6.25-7-9.5Q57.5 11 50 11q-3.5 0-8 .5-4.25.25-8.5 2l-11.75 30h-6.5a210 210 0 0 1-4.5-15.5Q9 20 8.5 12.25q9.5-5.75 21-9Q41.25 0 55.5 0q12.75 0 20.25 3.75Q83.5 7.25 87.5 13t5.25 12.75a79.5 79.5 0 0 1 1.25 14q0 15-.75 29-.5 13.75-.5 26.5M44.5 115.5q6.25 0 11-2.5t8-6 5.25-7q2-3.75 2.75-6.25V67.5Q57 67.5 47.75 69t-14.5 4.75T26 82q-2 4.75-2 11 0 10.75 5.5 16.75 5.5 5.75 15 5.75"/><path fill="#b01c2e" d="M184.433 120.335a4208 4208 0 0 0 71.879 25.197c1.285.431 2.825.947 3.735 1.221l-3.594 12.494c-1.67-.504-2.879-.926-4.279-1.392A4217 4217 0 0 1 180 132.556c-1.316-.478-2.693-.979-3.985-1.452l4.47-12.208c1.278.468 2.642.965 3.948 1.439"/><path fill="#b01c2e" d="M201.216 127.508c20.581-15.709 61.945-47.383 64.889-49.992l6.634 7.482c-3.307 2.932-45.193 34.993-65.455 50.459zM478.25 61.5v10h-178v-10z"/></svg>